<svg xmlns="http://www.w3.org/2000/svg" width="1200" height="760" viewBox="0 0 1200 760" role="img" aria-labelledby="title desc">
  <title id="title">Nuttie original chestnut mascot sheet</title>
  <desc id="desc">Four flat-color chestnut character poses for the Nuttie Figma-ready concept kit.</desc>
  <defs>
    <style>
      .ink{fill:#262721}.shell{fill:#a85d3f}.shellLight{fill:#c98155}.shellDark{fill:#7a3f31}.leaf{fill:#3e7a58}.leafDark{fill:#28583f}.paper{fill:#fffdf8}.cream{fill:#f5f1e9}.amber{fill:#e1a54d}.sky{fill:#4d87a5}.line{stroke:#262721;stroke-width:8;stroke-linecap:round;stroke-linejoin:round}.thin{stroke:#262721;stroke-width:5;stroke-linecap:round;stroke-linejoin:round}
    </style>
  </defs>
  <rect width="1200" height="760" rx="36" fill="#f5f1e9"/>
  <g id="mascot-home" transform="translate(60 100)">
    <ellipse cx="170" cy="500" rx="130" ry="24" fill="#d8cdbb"/>
    <path class="shell line" d="M72 280c0-108 43-184 98-184s98 76 98 184v118c0 65-43 103-98 103s-98-38-98-103Z"/>
    <path class="shellLight thin" d="M88 277c8-68 36-121 82-148 46 27 74 80 82 148-51-24-113-24-164 0Z"/>
    <path class="shellDark thin" d="M85 348c57 28 113 28 170 0v50c0 65-43 103-85 103s-85-38-85-103Z"/>
    <path class="leaf line" d="M158 102c-16-54 16-91 70-91 0 49-23 79-70 91Z"/>
    <path class="leafDark thin" d="M163 87c23-27 41-42 63-55" fill="none"/>
    <circle cx="133" cy="297" r="12" class="ink"/><circle cx="207" cy="297" r="12" class="ink"/>
    <path d="M153 331c13 14 28 14 41 0" class="thin" fill="none"/>
    <circle cx="112" cy="331" r="13" fill="#d98870" opacity=".72"/><circle cx="228" cy="331" r="13" fill="#d98870" opacity=".72"/>
    <path d="M70 350 31 389" class="line" fill="none"/><path d="M269 350 309 389" class="line" fill="none"/>
    <rect x="39" y="386" width="67" height="65" rx="12" class="paper line"/>
    <path d="M55 413h36M55 429h25" class="thin" fill="none"/>
    <path d="M83 398v-12M61 398v-12" class="thin" fill="none"/>
    <text x="170" y="570" text-anchor="middle" font-family="Arial,sans-serif" font-size="28" font-weight="700" fill="#262721">home</text>
  </g>
  <g id="mascot-meal" transform="translate(340 100)">
    <ellipse cx="170" cy="500" rx="130" ry="24" fill="#d8cdbb"/>
    <path class="shell line" d="M72 280c0-108 43-184 98-184s98 76 98 184v118c0 65-43 103-98 103s-98-38-98-103Z"/>
    <path class="shellLight thin" d="M88 277c8-68 36-121 82-148 46 27 74 80 82 148-51-24-113-24-164 0Z"/>
    <path class="leaf line" d="M158 102c-16-54 16-91 70-91 0 49-23 79-70 91Z"/>
    <path class="leafDark thin" d="M163 87c23-27 41-42 63-55" fill="none"/>
    <circle cx="133" cy="297" r="12" class="ink"/><circle cx="207" cy="297" r="12" class="ink"/>
    <path d="M153 331c13 14 28 14 41 0" class="thin" fill="none"/>
    <circle cx="112" cy="331" r="13" fill="#d98870" opacity=".72"/><circle cx="228" cy="331" r="13" fill="#d98870" opacity=".72"/>
    <path d="M70 355 20 330" class="line" fill="none"/><path d="M269 355 321 326" class="line" fill="none"/>
    <path d="M9 318h82c0 53-18 75-41 75S9 371 9 318Z" class="paper line"/>
    <path d="M25 341h50M31 357h38" class="thin" fill="none"/>
    <path d="M321 319v64M308 333h26M308 350h26" class="thin" fill="none"/>
    <text x="170" y="570" text-anchor="middle" font-family="Arial,sans-serif" font-size="28" font-weight="700" fill="#262721">meal</text>
  </g>
  <g id="mascot-growth" transform="translate(620 100)">
    <ellipse cx="170" cy="500" rx="130" ry="24" fill="#d8cdbb"/>
    <path class="shell line" d="M72 280c0-108 43-184 98-184s98 76 98 184v118c0 65-43 103-98 103s-98-38-98-103Z"/>
    <path class="shellLight thin" d="M88 277c8-68 36-121 82-148 46 27 74 80 82 148-51-24-113-24-164 0Z"/>
    <path class="leaf line" d="M158 102c-16-54 16-91 70-91 0 49-23 79-70 91Z"/>
    <path class="leafDark thin" d="M163 87c23-27 41-42 63-55" fill="none"/>
    <circle cx="133" cy="297" r="12" class="ink"/><circle cx="207" cy="297" r="12" class="ink"/>
    <path d="M153 331c13 14 28 14 41 0" class="thin" fill="none"/>
    <circle cx="112" cy="331" r="13" fill="#d98870" opacity=".72"/><circle cx="228" cy="331" r="13" fill="#d98870" opacity=".72"/>
    <path d="M70 365 18 401" class="line" fill="none"/><path d="M269 365 322 401" class="line" fill="none"/>
    <path d="M26 441c18-61 51-84 75-94-7 39-16 87-75 94Z" class="leaf line"/>
    <path d="M43 438c18-21 31-38 46-67" class="thin" fill="none"/>
    <path d="M315 394c-28 8-40 32-34 57 24-5 41-25 34-57Z" class="sky line"/>
    <path d="M297 398c-3 26 0 39 14 52" class="thin" fill="none"/>
    <text x="170" y="570" text-anchor="middle" font-family="Arial,sans-serif" font-size="28" font-weight="700" fill="#262721">growth</text>
  </g>
  <g id="mascot-streak" transform="translate(900 100)">
    <ellipse cx="170" cy="500" rx="130" ry="24" fill="#d8cdbb"/>
    <path class="shell line" d="M72 280c0-108 43-184 98-184s98 76 98 184v118c0 65-43 103-98 103s-98-38-98-103Z"/>
    <path class="shellLight thin" d="M88 277c8-68 36-121 82-148 46 27 74 80 82 148-51-24-113-24-164 0Z"/>
    <path class="leaf line" d="M158 102c-16-54 16-91 70-91 0 49-23 79-70 91Z"/>
    <path class="leafDark thin" d="M163 87c23-27 41-42 63-55" fill="none"/>
    <circle cx="133" cy="297" r="12" class="ink"/><circle cx="207" cy="297" r="12" class="ink"/>
    <path d="M151 330c15 17 31 17 46 0" class="thin" fill="none"/>
    <circle cx="112" cy="331" r="13" fill="#d98870" opacity=".72"/><circle cx="228" cy="331" r="13" fill="#d98870" opacity=".72"/>
    <path d="M70 354 22 314" class="line" fill="none"/><path d="M269 354 321 307" class="line" fill="none"/>
    <path d="M30 311V211h86l-43 29h43" class="amber line"/>
    <path d="m54 172 10 21 23 3-17 16 4 23-20-11-21 11 4-23-17-16 23-3Z" class="amber line"/>
    <path d="m299 186 7 15 17 2-12 12 3 17-15-8-15 8 3-17-12-12 17-2Z" class="sky line"/>
    <text x="170" y="570" text-anchor="middle" font-family="Arial,sans-serif" font-size="28" font-weight="700" fill="#262721">streak</text>
  </g>
</svg>
